<svg width="248" height="438" viewBox="0 0 248 438" fill="none" xmlns="http://www.w3.org/2000/svg">
<path d="M213.718 2.35049H34.7415C16.7654 2.35049 2.1991 16.8744 2.1991 34.7981V402.533C2.1991 420.428 16.7654 434.981 34.7415 434.981H213.718C231.694 434.981 246.26 420.428 246.26 402.533V34.7981C246.26 16.8744 231.694 2.35049 213.718 2.35049Z" fill="#a7ce64"/>
<path d="M214.616 8.35367C228.212 8.35367 239.269 19.3782 239.269 32.9348V404.382C239.269 417.939 228.212 428.963 214.616 428.963H33.8282C20.232 428.963 9.17529 417.939 9.17529 404.382V32.9348C9.17529 19.3782 20.232 8.35367 33.8282 8.35367H214.616ZM214.616 0.159973H33.8282C15.6666 0.159973 0.957642 14.8261 0.957642 32.9348V404.382C0.957642 422.463 15.6666 437.157 33.8282 437.157H214.616C232.778 437.157 247.487 422.463 247.487 404.382V32.9348C247.487 14.8261 232.778 0.159973 214.616 0.159973Z" fill="black"/>
<path d="M112.409 164.034C135.093 164.034 153.483 182.37 153.483 204.988C153.483 227.606 135.093 245.942 112.409 245.942C89.725 245.942 71.3352 227.606 71.3352 204.988C71.3352 182.37 89.725 164.034 112.409 164.034Z" fill="black"/>
<path d="M66.8843 265.445C65.9855 265.445 65.0725 265.146 64.3021 264.535C62.533 263.112 62.2619 260.537 63.6886 258.773L73.2188 246.981C74.6455 245.217 77.2277 244.946 78.9968 246.355C80.7659 247.777 81.0369 250.352 79.6102 252.116L70.0801 263.909C69.2669 264.919 68.0827 265.431 66.8843 265.431V265.445Z" fill="black"/>
<path d="M54.7999 252.315C53.5587 252.315 52.3175 251.746 51.5186 250.679C50.149 248.873 50.5199 246.298 52.3318 244.946L62.9034 237.009C64.7153 235.643 67.2833 236.013 68.6529 237.82C70.0225 239.626 69.6516 242.201 67.8397 243.552L57.2681 251.49C56.5262 252.045 55.6559 252.315 54.7999 252.315Z" fill="black"/>
<path d="M171.088 251.12C170.247 251.12 169.405 250.864 168.677 250.338L156.322 241.39C154.482 240.067 154.082 237.493 155.409 235.672C156.75 233.837 159.304 233.438 161.144 234.761L173.499 243.709C175.34 245.032 175.739 247.607 174.412 249.428C173.614 250.537 172.358 251.12 171.088 251.12Z" fill="black"/>
<path d="M26.3097 301.563C26.3097 301.563 28.9062 301.676 33.4145 302.189C35.6544 302.473 38.3936 302.758 41.518 303.327C43.0873 303.597 44.7566 303.91 46.5399 304.294C47.453 304.507 48.3803 304.664 49.3219 305.133C49.7642 305.332 50.2635 305.631 50.7914 305.944L52.0183 306.684C53.7018 307.651 55.314 308.462 57.083 309.387C58.8949 310.283 60.7496 311.222 62.6756 312.175C66.5276 314.081 70.6364 315.973 74.8879 317.85C79.1965 319.714 83.3338 321.236 88.1559 322.559C92.8925 323.925 97.7432 325.248 102.608 326.542C122.054 331.663 141.713 335.973 156.536 338.335C158.391 338.619 160.146 339.003 161.858 339.089C162.714 339.117 163.513 339.43 164.283 339.715C165.068 339.999 165.824 340.269 166.552 340.54C169.491 341.521 172.073 342.389 174.199 343.157C176.339 343.811 178.022 344.423 179.178 344.821C180.333 345.22 180.961 345.433 180.961 345.433C180.961 345.433 180.319 345.533 179.121 345.746C177.922 345.945 176.139 346.258 173.871 346.543C171.602 346.813 168.849 347.069 165.667 347.297C164.882 347.339 164.055 347.396 163.213 347.439C162.371 347.496 161.501 347.567 160.645 347.353C158.933 346.969 157.107 346.784 155.224 346.429C140.073 344.011 120.199 339.643 100.525 334.465C95.6174 333.157 90.7097 331.834 85.8876 330.426C81.1082 329.131 76.0292 327.282 71.6493 325.361C67.2266 323.413 63.018 321.478 59.0803 319.529C57.1115 318.548 55.1998 317.594 53.3452 316.67C51.4905 315.688 49.5787 314.721 47.9809 313.796L47.3531 313.469L46.9822 313.27L46.7539 313.17L45.7553 312.758C45.0705 312.445 44.3428 311.947 43.658 311.492C42.2456 310.61 40.8332 309.785 39.4921 309.017C36.7815 307.495 34.4274 306.157 32.4871 305.062C28.5638 302.871 26.324 301.548 26.324 301.548L26.3097 301.563Z" fill="black"/>
<path d="M49.5783 333.939C49.5783 333.939 47.4954 333.768 43.8859 333.342C42.074 333.128 39.8912 332.844 37.3945 332.474C36.1675 332.289 34.8408 332.09 33.4569 331.876C32.7436 331.791 32.0873 331.549 31.4596 331.194C30.8033 330.895 30.1185 330.653 29.4337 330.34C23.8982 328.107 17.4354 325.475 10.5303 322.659C8.80401 321.947 7.0492 321.208 5.26586 320.496C3.71078 319.728 2.35543 319.017 0.971558 318.277V309.045C1.84183 309.486 2.69783 309.941 3.55383 310.382C5.25157 311.25 6.9493 312.132 8.61851 313C10.4018 313.739 12.1567 314.451 13.8829 315.162C20.8166 317.978 27.2509 320.596 32.7864 322.843C33.4712 323.114 34.156 323.412 34.8408 323.64C35.5256 323.811 36.1819 324.081 36.724 324.494C37.8511 325.29 38.9211 326.044 39.934 326.755C41.9599 328.149 43.7147 329.43 45.1414 330.497C48.0233 332.63 49.6068 333.939 49.6068 333.939H49.5783Z" fill="black"/>
<path d="M205.713 382.205C205.713 382.205 202.175 382.419 195.969 382.646C192.873 382.76 189.093 382.917 184.798 382.973C182.63 383.002 180.333 383.03 177.922 383.087C176.695 383.116 175.482 382.974 174.227 382.732C173 382.547 171.702 382.405 170.389 382.234C165.182 381.579 159.518 380.868 153.511 380.128C147.534 379.332 141.214 378.564 134.694 377.639C128.145 376.714 121.411 375.832 114.563 374.766C107.715 373.784 100.753 372.689 93.8052 371.508C90.3527 370.967 86.7431 370.199 83.2335 369.573C81.4216 369.246 79.6954 368.862 78.0262 368.421L75.501 367.824L74.2455 367.525L74.1599 367.497L73.9174 367.411L73.7605 367.354L73.4608 367.24L72.8331 367.027C66.2561 364.509 59.6079 362.219 53.6016 359.658C47.4954 357.141 41.6032 354.708 36.0107 352.389C30.4466 350.042 25.1965 347.795 20.3172 345.732C17.9347 344.58 15.4666 343.954 13.3836 342.702C11.3292 341.45 9.38891 340.27 7.5485 339.146C5.67956 337.965 3.95327 337.04 2.45527 336.116C1.9702 335.817 1.47089 335.518 0.971558 335.248V331.009C1.9845 331.194 3.08305 331.45 4.19585 331.749C6.1076 332.247 8.09065 332.759 10.1451 333.356C12.228 333.954 14.4251 334.579 16.7506 335.262C17.9347 335.589 19.019 336.102 20.1461 336.685C21.2731 337.225 22.443 337.723 23.6557 338.235C28.4779 340.284 33.7137 342.503 39.2064 344.85C44.7704 347.14 50.6055 349.544 56.6831 352.062C62.7322 354.651 68.9525 356.785 75.2869 359.189L76.2999 359.573L77.5554 359.872L80.0806 360.498C81.7784 360.939 83.4761 361.294 85.1167 361.593C88.4837 362.191 91.6937 362.873 95.2033 363.428C102.08 364.609 108.985 365.69 115.776 366.686C122.595 367.724 129.301 368.592 135.792 369.531C142.284 370.455 148.618 371.195 154.553 371.992C160.531 372.76 166.166 373.443 171.402 374.097C172.686 374.253 173.984 374.424 175.24 374.538C176.467 374.595 177.708 374.751 178.849 375.079C181.203 375.676 183.429 376.259 185.497 376.771C189.692 377.81 193.301 378.791 196.312 379.588C202.289 381.195 205.699 382.205 205.699 382.205H205.713Z" fill="black"/>
<path d="M247.487 128.997V138.201C243.649 136.152 239.455 134.132 235.003 132.112C233.092 131.259 231.109 130.419 229.083 129.552C228.098 129.139 227.085 128.698 226.072 128.271C225.659 128.101 224.432 127.802 223.447 127.589C219.182 126.636 214.459 125.867 209.694 125.071C200.135 123.492 189.949 122.012 179.42 120.476C168.906 118.997 158.006 117.446 146.935 115.896C141.428 115.184 135.678 114.06 130.528 113.762C125.107 113.435 119.457 113.435 113.85 113.52C102.622 113.691 91.3088 114.288 80.2093 114.999L76.072 115.27L74.0176 115.44C73.3043 115.497 73.1473 115.526 72.4625 115.682C70.0229 116.18 67.3407 116.906 64.787 117.645L63.0036 118.186C62.6755 118.271 62.376 118.399 61.9908 118.485L61.1347 118.669L60.4499 118.812C59.1089 119.054 57.7678 119.31 56.4267 119.551C53.8016 120.064 51.1908 120.561 48.5943 121.059C43.3869 122.126 38.4934 123.193 33.5001 124.473C30.9035 125.099 28.8776 125.682 26.6235 126.522C24.3979 127.318 22.2151 128.271 20.018 129.196C13.2841 132.254 6.86407 135.583 0.957642 138.869V129.552C5.89393 126.906 11.1156 124.26 16.6796 121.714C18.9766 120.732 21.302 119.722 23.7987 118.812C26.2668 117.887 29.1202 117.09 31.4742 116.521C36.439 115.241 41.7462 114.089 46.9821 113.022C49.6072 112.51 52.275 112.012 54.9572 111.486C56.2697 111.244 57.6108 111.016 58.9234 110.774L59.223 110.689H59.3942C59.6653 110.632 59.9934 110.504 60.3501 110.39L62.4901 109.764C65.2007 108.996 67.8259 108.257 70.8219 107.602C71.4781 107.46 72.6765 107.304 73.3613 107.247L75.4728 107.076L79.6672 106.777C90.8951 106.066 102.266 105.497 113.736 105.298C119.457 105.212 125.178 105.184 131.042 105.54C133.924 105.682 137.176 106.166 139.801 106.55C142.569 106.962 145.337 107.346 148.076 107.745C159.176 109.295 170.047 110.86 180.59 112.339C191.133 113.876 201.32 115.369 211.021 116.948C215.872 117.745 220.551 118.499 225.231 119.537C226.458 119.836 227.471 120.007 229.154 120.633C230.224 121.102 231.294 121.529 232.335 121.97C234.39 122.866 236.387 123.748 238.356 124.616C241.538 126.038 244.576 127.489 247.472 128.954L247.487 128.997Z" fill="black"/>
<path d="M247.487 114.843V122.269C246.773 122.098 246.003 121.942 245.19 121.757C244.476 121.614 243.678 121.458 242.864 121.287C242.451 121.23 242.094 121.045 241.794 120.747C241.495 120.476 241.11 120.277 240.753 120.064C239.326 119.139 237.714 118.257 236.016 117.276C235.175 116.835 234.29 116.38 233.42 115.91C232.678 115.555 231.965 115.199 231.194 114.843L229.611 114.345L229.525 114.288C229.525 114.288 229.682 114.345 229.853 114.374L229.611 114.288L229.125 114.175L228.141 113.933C226.714 113.577 225.644 113.193 224.532 112.838C222.306 112.126 220.038 111.387 217.798 110.647C213.304 109.167 208.867 107.674 204.672 106.365C200.478 104.999 196.597 103.876 193.245 102.866C192.831 102.752 192.446 102.652 192.032 102.624C191.647 102.595 191.262 102.538 190.933 102.268C190.277 101.77 189.649 101.287 189.064 100.846C187.866 99.9495 186.739 99.1244 185.783 98.4985C183.9 97.2467 182.858 96.3648 182.858 96.3648C182.858 96.3648 184.114 95.9238 186.283 95.3548C186.825 95.2125 187.438 95.056 188.094 94.8853C188.779 94.7715 189.493 94.7146 190.291 94.6151C191.09 94.5013 191.932 94.4301 192.831 94.3163C193.302 94.2594 193.73 94.4017 194.143 94.5866C194.557 94.7715 195.014 94.8569 195.456 94.9991C198.909 96.0091 202.932 97.1614 207.155 98.5554C211.406 99.8926 215.9 101.4 220.351 102.866C222.577 103.577 224.817 104.317 227 105.028C228.07 105.384 229.197 105.739 229.982 105.924L230.638 106.109L230.966 106.223L231.137 106.251L231.608 106.365L231.636 106.394H231.693L231.779 106.422L233.391 106.92C234.618 107.432 235.988 108.044 237.086 108.556C238.071 109.068 239.055 109.594 239.982 110.092C241.823 111.159 243.549 112.112 245.076 113.094C245.489 113.307 245.846 113.591 246.26 113.776C246.674 113.919 247.03 114.16 247.273 114.545C247.358 114.658 247.415 114.758 247.487 114.843Z" fill="black"/>
<path d="M101.952 284.236C105.376 284.734 108.857 284.976 112.409 284.976C113.636 284.976 114.849 284.948 116.047 284.862C116.761 284.834 117.474 284.777 118.159 284.72C112.766 284.748 107.359 284.549 101.938 284.222L101.952 284.236ZM122.61 284.677C121.183 284.706 119.728 284.734 118.287 284.734H118.173C112.78 284.763 107.373 284.564 101.952 284.236H101.923C88.1131 283.411 74.146 281.562 60.5641 279.073C39.2496 275.147 18.7625 269.684 0.957642 264.108V275.957C37.3949 290.268 82.3351 304.038 121.697 304.692C173.799 305.546 216.471 290.737 247.487 274.378V239.697C229.411 252.756 200.264 270.21 164.297 279.058C151.229 282.288 137.262 284.35 122.61 284.692V284.677ZM134.038 124.331C80.2664 121.159 35.0123 142.938 0.971922 168.714V190.379C10.017 184.731 19.9467 179.312 30.6895 174.532C35.5973 172.341 40.6905 170.293 45.9264 168.444C68.4393 160.392 93.9482 155.584 121.726 157.22C142.954 158.472 161.53 161.815 177.608 166.367C182.916 167.874 187.966 169.51 192.731 171.232C217.569 180.222 235.46 191.958 247.515 201.986V163.536C221.222 144.033 184.371 127.29 134.052 124.345L134.038 124.331ZM101.966 284.236C105.39 284.734 108.871 284.976 112.424 284.976C113.651 284.976 114.863 284.948 116.062 284.862C116.775 284.834 117.488 284.777 118.173 284.72C112.78 284.748 107.373 284.549 101.952 284.222L101.966 284.236Z" fill="black"/>
<path d="M200.706 207.862C200.706 237.08 186.354 262.998 164.297 279.044C151.229 282.273 137.262 284.336 122.61 284.678C121.183 284.706 119.728 284.734 118.287 284.734C158.191 281.761 189.749 248.432 189.749 207.876C189.749 192.939 185.498 178.657 177.594 166.367C182.901 167.875 187.952 169.511 192.717 171.232C197.953 182.569 200.72 195.016 200.72 207.89L200.706 207.862Z" fill="black"/>
<path d="M101.937 284.236C88.1272 283.411 74.16 281.562 60.5781 279.073C38.5074 263.041 24.1409 237.094 24.1409 207.876C24.1409 196.268 26.3808 184.959 30.6893 174.532C35.5971 172.341 40.6903 170.293 45.9262 168.444C38.8642 180.236 35.112 193.793 35.112 207.876C35.112 246.853 64.2589 279.158 101.952 284.236H101.937Z" fill="black"/>
<path d="M178.35 0.159973C175.368 1.82432 172.358 3.38909 169.262 4.82583L162.571 7.88424L155.752 10.8004C153.54 11.7819 151.229 12.6639 148.989 13.617C146.721 14.5701 144.495 15.5801 142.198 16.462L135.407 19.2217C133.139 20.0894 130.828 20.9429 128.559 21.8107C126.291 22.6784 123.98 23.5319 121.683 24.3285C119.386 25.1536 117.075 25.936 114.778 26.6757C105.49 29.6772 96.1025 32.3089 86.6722 34.6276C67.7688 39.08 48.6228 42.2522 29.4198 43.6179C28.7921 43.6748 28.2214 43.1769 28.1643 42.551C28.1643 42.1669 28.3355 41.8113 28.6066 41.5694C26.0671 42.11 23.5134 42.6648 20.9596 43.1769C14.3113 44.571 7.64874 45.8797 0.957642 47.1599V32.9348C0.957642 14.8261 15.6666 0.159973 33.8282 0.159973H178.35Z" fill="black"/>
</svg>
