<svg width="3750" height="2796" viewBox="0 0 3750 2796" fill="none" xmlns="http://www.w3.org/2000/svg">
<path fill-rule="evenodd" clip-rule="evenodd" d="M1802.06 19.1593C1990.84 -126.474 1903.12 607.989 2138.93 643.234C2461.32 691.421 2675.27 174.895 3000.41 198.269C3218.15 213.922 3254.77 546.706 3370.56 731.773C3494.29 929.543 3868.23 1162.46 3712.11 1335.8C3424.76 1654.83 2578.63 1288.46 2490.65 1708.71C2395.34 2163.95 3809.61 2481.08 3419.35 2734.11C2985.96 3015.1 2567.45 2157.84 2085.87 1971.15C2008.96 1941.34 1978.76 2093.91 1921.85 2153.61C1824.19 2256.09 1763.71 2419.75 1626.22 2453.45C1512.7 2481.28 1361.11 2409.35 1312.85 2302.9C1249.95 2164.16 1502 1884.98 1353.37 1851.62C917.226 1753.73 35.3702 2462.85 33.9757 2015.86C32.4796 1536.33 1320.66 1949.6 1352.19 1471.1C1384.55 979.846 310.05 1131.42 122.228 676.335C8.10602 399.821 720.926 574.362 1011.47 645.555C1248.93 703.741 1428.58 1195.22 1620.21 1043.39C1894.33 826.206 1525.15 232.776 1802.06 19.1593Z" fill="#fe7677"/>
<path fill-rule="evenodd" clip-rule="evenodd" d="M1694.83 142.02C1875.47 2.65957 1791.53 705.487 2017.18 739.214C2325.69 785.325 2530.42 291.048 2841.56 313.415C3049.92 328.393 3084.96 646.844 3195.76 823.939C3314.17 1013.19 3672 1236.07 3522.6 1401.95C3247.63 1707.24 2437.95 1356.65 2353.75 1758.8C2262.55 2194.43 3615.9 2497.9 3242.45 2740.03C2827.73 3008.91 2427.25 2188.58 1966.41 2009.94C1892.81 1981.41 1863.91 2127.4 1809.46 2184.54C1716 2282.6 1658.13 2439.21 1526.56 2471.46C1417.93 2498.09 1272.87 2429.26 1226.68 2327.39C1166.49 2194.63 1407.69 1927.48 1265.47 1895.55C848.104 1801.88 4.2327 2480.46 2.89822 2052.71C1.46662 1593.84 1234.16 1989.31 1264.33 1531.43C1295.3 1061.33 267.081 1206.38 87.3489 770.889C-21.8571 506.285 660.26 673.308 938.288 741.435C1165.52 797.115 1337.44 1267.43 1520.81 1122.14C1783.12 914.305 1429.85 346.436 1694.83 142.02Z" stroke="#a7ce64" stroke-width="4"/>
</svg>
