<?xml version="1.0" encoding="UTF-8"?>
<svg id="Layer_2" data-name="Layer 2" xmlns="http://www.w3.org/2000/svg" viewBox="0 0 265.49 80.67">
  <defs>
    <style>
      .cls-1 {
        fill: #050c13;
      }
    </style>
  </defs>
  <g id="Layer_1-2" data-name="Layer 1">
    <g>
      <path class="cls-1" d="m91.82,20.31c0-1.2-.22-2.19-.65-2.96-.44-.77-.99-1.39-1.65-1.85-.67-.47-1.39-.8-2.16-1-.77-.2-1.49-.3-2.15-.3s-1.39.1-2.16.3c-.77.2-1.49.52-2.15.95-.67.44-1.22,1.05-1.65,1.85-.44.8-.65,1.8-.65,3.01v29.96l13.22-16.43v-13.53Z"/>
      <path class="cls-1" d="m78.6,62.59c.53.87,1.17,1.6,1.9,2.2.67.54,1.38.97,2.15,1.3.77.33,1.59.5,2.45.5,1.67,0,3.11-.73,4.31-2.2l31.96-39.78c.93-1.14,1.4-2.34,1.4-3.61,0-1.07-.3-2.05-.9-2.96-.6-.9-1.27-1.65-2-2.25-.67-.53-1.39-.95-2.16-1.25-.77-.3-1.55-.45-2.35-.45-1.67,0-3.11.74-4.31,2.2l-31.86,39.78c-.94,1.2-1.4,2.44-1.4,3.71,0,1,.27,1.94.8,2.81"/>
      <path class="cls-1" d="m120.98,54.68l-10.72-9.72-8.32,10.32,10.12,9.22c.87.8,1.74,1.3,2.61,1.5.87.2,1.7.22,2.51.05.8-.17,1.54-.47,2.2-.9.67-.44,1.2-.89,1.6-1.35.4-.47.8-1.07,1.2-1.8.4-.73.65-1.52.75-2.35.1-.84.01-1.67-.25-2.51-.27-.84-.84-1.65-1.7-2.45"/>
      <path class="cls-1" d="m163.41,44.46c-.84-1.34-1.65-2.44-2.45-3.31-.8-.87-1.3-1.4-1.5-1.6l-20.84-23.44c-.74-.8-1.49-1.35-2.25-1.65-.77-.3-1.55-.4-2.35-.3-.8.1-1.55.34-2.25.7-.7.37-1.35.79-1.95,1.25-.53.47-1.04,1.04-1.5,1.7-.47.67-.79,1.4-.95,2.21-.17.8-.15,1.62.05,2.45.2.84.67,1.69,1.4,2.56l18.74,21.04c1.4,1.67,2.27,2.91,2.61,3.71.33.8.5,1.6.5,2.4,0,.6-.28,1.39-.85,2.35-.57.97-1.59,1.45-3.05,1.45-1,0-1.84-.22-2.51-.65-.67-.43-1.27-.98-1.8-1.65-.53-.67-1.04-1.37-1.5-2.1-.47-.73-1-1.43-1.6-2.1-.6-.67-1.34-1.22-2.21-1.65-.87-.43-1.94-.65-3.21-.65-2.74,0-4.69.84-5.86,2.51-1.17,1.67-1.75,3.54-1.75,5.61,0,1.54.33,2.96,1,4.26.67,1.3,1.52,2.44,2.55,3.41,1.04.97,2.15,1.74,3.36,2.3,1.2.57,2.34.85,3.41.85l19.74.1c.93,0,2-.18,3.21-.55,1.2-.36,2.34-.98,3.41-1.85,1.07-.87,1.97-2.04,2.71-3.51.73-1.47,1.1-3.27,1.1-5.41s-.35-3.99-1.05-5.76c-.7-1.77-1.47-3.32-2.3-4.66"/>
      <path class="cls-1" d="m163.16,26.72c.8-.4,1.42-.9,1.85-1.5.43-.6.75-1.27.95-2,.2-.73.3-1.47.3-2.2,0-.67-.1-1.42-.3-2.25-.2-.84-.54-1.59-1-2.25-.47-.67-1.09-1.24-1.85-1.7-.77-.47-1.75-.7-2.96-.7h-16.53l11.72,13.22h4.81c1.2,0,2.2-.2,3.01-.6"/>
      <path class="cls-1" d="m202.69,45.76c.8-.4,1.42-.92,1.85-1.55.44-.63.75-1.32.95-2.06.2-.73.3-1.43.3-2.1s-.1-1.37-.3-2.11c-.2-.73-.53-1.4-1-2-.47-.6-1.09-1.1-1.85-1.5-.77-.4-1.75-.6-2.96-.6h-10.32v12.52h10.32c1.2,0,2.21-.2,3.01-.6"/>
      <path class="cls-1" d="m183.21,65.7c.63-.47,1.15-1.07,1.55-1.8.4-.73.6-1.67.6-2.81V14.2h-13.22v46.89c0,1.14.2,2.07.6,2.81.4.74.93,1.34,1.6,1.8.67.47,1.4.8,2.2,1,.8.2,1.57.3,2.3.3s1.49-.1,2.25-.3c.77-.2,1.47-.53,2.1-1"/>
      <path class="cls-1" d="m204.5,16.2c-.47-.6-1.09-1.1-1.85-1.5-.77-.4-1.75-.6-2.96-.6h-10.32v12.52h10.32c1.2,0,2.21-.2,3.01-.6.8-.4,1.42-.92,1.85-1.55.44-.63.75-1.32.95-2.05.2-.73.3-1.44.3-2.1s-.1-1.37-.3-2.1c-.2-.73-.53-1.4-1-2"/>
      <path class="cls-1" d="m189.37,66.2h10.32c1.2,0,2.21-.2,3.01-.6.8-.4,1.42-.92,1.85-1.55.43-.64.75-1.32.95-2.06.2-.73.3-1.43.3-2.1s-.1-1.37-.3-2.1c-.2-.74-.53-1.4-1-2-.47-.6-1.09-1.1-1.85-1.5-.77-.4-1.75-.6-2.96-.6h-10.32v12.52Z"/>
      <path class="cls-1" d="m251.37,16.3c-.47-.6-1.09-1.1-1.85-1.5-.77-.4-1.75-.6-2.96-.6h-31.86c-1.2,0-2.19.2-2.96.6-.77.4-1.39.9-1.85,1.5-.47.6-.8,1.27-1,2-.2.74-.3,1.44-.3,2.1s.1,1.37.3,2.11c.2.73.52,1.42.95,2.05.44.63,1.05,1.15,1.85,1.55.8.4,1.8.6,3.01.6h31.86c1.2,0,2.21-.2,3.01-.6.8-.4,1.42-.92,1.85-1.55.44-.63.75-1.32.95-2.05.2-.74.3-1.44.3-2.11s-.1-1.37-.3-2.1c-.2-.73-.54-1.4-1-2"/>
      <path class="cls-1" d="m235.09,65.7c.63-.47,1.15-1.07,1.55-1.8.4-.73.6-1.67.6-2.81v-30.26h-13.22v30.26c0,1.14.2,2.07.6,2.81.4.74.93,1.34,1.6,1.8.67.47,1.4.8,2.21,1,.8.2,1.57.3,2.3.3s1.49-.1,2.25-.3c.76-.2,1.47-.53,2.1-1"/>
      <path class="cls-1" d="m66.19,58.43V22.18c0-4.73-3.8-8.57-8.48-8.57H21.72c-4.68,0-8.47,3.83-8.48,8.55v36.28c.01,4.72,3.8,8.55,8.48,8.55h10.22v-22.25h-12.72l20.5-25.21,20.6,25.21h-12.88v22.25h10.28c4.68,0,8.48-3.84,8.48-8.57"/>
      <path class="cls-1" d="m265.49,14.19v52.29c0,7.84-6.35,14.19-14.19,14.19H14.19c-7.83,0-14.19-6.35-14.19-14.19V14.19C0,6.35,6.35,0,14.19,0h237.11c7.84,0,14.19,6.35,14.19,14.19M14.19,74.78h237.11c4.59,0,8.3-3.72,8.3-8.3V14.19c0-4.58-3.72-8.3-8.3-8.3H14.19c-4.59,0-8.3,3.72-8.3,8.3v52.29c0,4.59,3.72,8.3,8.3,8.3"/>
    </g>
  </g>
</svg>