<svg xmlns="http://www.w3.org/2000/svg" viewBox="0 0 167.34 167.34"><defs><style>.cls-1{fill:#231f20;}.cls-2{fill:none;stroke:#231f20;stroke-width:2.07px;}</style></defs><g id="Layer_2" data-name="Layer 2"><g id="Layer_1-2" data-name="Layer 1"><path class="cls-1" d="M67.65,115.52a11.82,11.82,0,0,1-4.15,9.1,14.8,14.8,0,0,1-10.3,3.75,14.88,14.88,0,0,1-10.36-3.75,11.85,11.85,0,0,1-4.15-9.1V101.31H48.78v19.74q0,5,4.42,5t4.37-5V105.74a20.15,20.15,0,0,0-3-11L42,75.12a20.59,20.59,0,0,1-3.26-11.31v-12a11.85,11.85,0,0,1,4.15-9.1A14.88,14.88,0,0,1,53.2,39a14.8,14.8,0,0,1,10.3,3.75,11.82,11.82,0,0,1,4.15,9.1V66H57.57V46.29q0-5-4.37-5t-4.42,5V61a20,20,0,0,0,3,10.95L64.39,91.6A20.62,20.62,0,0,1,67.65,103Z"/><path class="cls-1" d="M126.05,115.52a11.84,11.84,0,0,1-4.14,9.1,16.1,16.1,0,0,1-20.66,0,11.82,11.82,0,0,1-4.15-9.1V101.31h10.08v19.74q0,5,4.42,5t4.37-5V105.74a20.07,20.07,0,0,0-3-11L100.35,75.12A20.59,20.59,0,0,1,97.1,63.81v-12a11.82,11.82,0,0,1,4.15-9.1,16.1,16.1,0,0,1,20.66,0,11.84,11.84,0,0,1,4.14,9.1V66H116V46.29q0-5-4.37-5t-4.42,5V61a20,20,0,0,0,3,10.95L122.8,91.6A20.7,20.7,0,0,1,126.05,103Z"/><polygon class="cls-1" points="24.14 92.54 21.83 92.54 21.83 74.08 33.14 74.08 33.14 76.11 24.14 76.11 24.14 81.94 31.59 81.94 31.59 83.81 24.14 83.81 24.14 92.54"/><polygon class="cls-1" points="88.22 90.51 88.22 92.54 76.28 92.54 76.28 74.08 87.97 74.08 87.97 76.11 78.59 76.11 78.59 81.98 86.03 81.98 86.03 83.86 78.59 83.86 78.59 90.51 88.22 90.51"/><path class="cls-1" d="M134.39,82.67h4.83a3.67,3.67,0,0,0,2.84-1,3.46,3.46,0,0,0,.94-2.47,2.74,2.74,0,0,0-1-2.26,3.79,3.79,0,0,0-2.51-.82h-5.11Zm11.12,9.87h-2.43l-3.4-8h-5.29v8h-2.16V74.09h7.27a5.54,5.54,0,0,1,4.39,1.61,5.2,5.2,0,0,1,1.42,3.53,5.48,5.48,0,0,1-.79,2.83A4.51,4.51,0,0,1,141.88,84Z"/><path class="cls-2" d="M83.67,166.3A82.64,82.64,0,1,0,1,83.67,82.63,82.63,0,0,0,83.67,166.3Z"/></g></g></svg>