<svg xmlns="http://www.w3.org/2000/svg" xmlns:xlink="http://www.w3.org/1999/xlink" xmlns:inkscape="http://www.inkscape.org/namespaces/inkscape" version="1.1" width="841.89" height="595.276" viewBox="0 0 841.89 595.276">
<defs>
<clipPath id="clip_3">
<path transform="matrix(1,0,0,-1,0,595.276)" d="M0 595.276H841.89V0H0Z"/>
</clipPath>
</defs>
<g inkscape:groupmode="layer" inkscape:label="Layer 1">
<path transform="matrix(1,0,0,-1,421.9408,432.2884)" d="M0 0V-23.242H-250.353L-254.648-.505-113.43 48.504-113.682 49.515-211.701 44.462-216.754 67.451-69.725 128.84-69.978 129.598-205.133 121.514-211.449 143.492-95.746 206.396-96.251 207.407-217.764 194.27-222.817 217.007-74.778 268.29V269.3H-202.86V292.542H-5.305L-1.263 269.553-122.271 227.87-122.019 226.859-41.936 235.954-34.863 213.722-155.618 148.039-155.113 147.029-8.084 155.871-3.032 133.134-149.303 71.241-148.797 70.23-35.368 75.788-31.073 52.799-181.134 1.011-180.881 0Z"/>
<path transform="matrix(1,0,0,-1,550.2859,389.3418)" d="M0 0-103.072-1.011-94.988-5.305 39.915 187.197V191.491H-93.725L-113.177 200.839-116.966 199.323-129.092 132.629-122.272 130.861-93.219 175.828 10.863 177.092 .253 181.134-134.398-11.116V-15.663L3.537-15.915 24.505-26.778 27.789-25.01V48.757L20.715 51.536Z"/>
<g clip-path="url(#clip_3)">
<path transform="matrix(1,0,0,-1,104.84,408.28883)" d="M0 0C42.694 0 76.546 21.221 76.546 63.662 76.546 100.04 50.778 113.177 18.694 124.292 11.621 126.566 5.053 129.092-1.263 131.619-17.431 137.934-34.357 146.271-34.357 167.744-34.357 188.965-17.937 199.828 6.063 199.828 19.2 199.828 29.81 196.291 40.673 188.46L33.599 197.302 62.399 149.05 69.978 150.313 59.873 217.764 56.841 219.28 37.136 206.396 60.125 201.091C43.704 209.68 27.789 213.722 9.347 213.722-29.052 213.722-60.125 194.775-60.125 156.629-60.125 126.819-43.199 112.672-10.61 100.546L9.6 92.967C27.789 86.146 48.504 77.304 48.504 52.799 48.504 24.252 24.757 14.905-4.042 14.905-20.463 14.905-32.084 19.705-46.231 27.284L-17.684 9.347-57.094 64.673H-66.188L-52.799 9.347C-34.357 2.021-19.705 0 0 0"/>
<path transform="matrix(1,0,0,-1,716.5871,210.4819)" d="M0 0C-53.557 0-80.083-30.063-80.083-82.104-80.083-139.703-51.031-182.649 3.789-182.649 15.663-182.649 31.326-180.376 43.199-174.818V-124.798L13.137-108.124V-102.061H86.651V-104.84L75.283-116.461V-167.744L79.325-181.891V-182.397C55.831-193.26 28.799-198.06 2.526-198.06-63.409-198.06-113.935-162.692-113.935-92.714-113.935-22.736-64.167 15.663 7.074 15.663 20.21 15.663 32.084 14.4 44.715 11.368L59.873 21.726H63.409L73.262-50.778 65.178-52.546 40.926-10.105C28.547-3.032 15.663 0 0 0"/>
</g>
</g>
</svg>
